<?xml version="1.0" encoding="utf-8"?>
<svg width="100px" height="48px" viewBox="0 0 100 48" version="1.1" xmlns:xlink="http://www.w3.org/1999/xlink" xmlns="http://www.w3.org/2000/svg">
  <defs>
    <path d="M100 0L100 0L100 48L0 48L0 0L100 0Z" id="path_1" />
    <path d="M94 0C97.3142 0 100 2.68584 100 6L100 54L0 54L0 6C0 2.68584 2.68584 0 6 0L94 0Z" id="path_2" />
    <clipPath id="clip_1">
      <use xlink:href="#path_1" clip-rule="evenodd" fill-rule="evenodd" />
    </clipPath>
    <clipPath id="clip_2">
      <use xlink:href="#path_2" />
    </clipPath>
  </defs>
  <g id="dark">
    <path d="M100 0L100 0L100 48L0 48L0 0L100 0Z" id="dark" fill="#FFFFFF" stroke="none" />
    <g id="Rectangle" clip-path="url(#clip_1)">
      <use stroke="none" fill="#131416" xlink:href="#path_2" />
      <g clip-path="url(#clip_2)">
        <use xlink:href="#path_2" fill="none" stroke="#6D6D80" stroke-width="4" />
      </g>
    </g>
    <path d="M24.5781 28.207L23.4609 25.0352L19.0938 25.0352L17.9766 28.207L16 28.207L20.25 16.7383L22.3281 16.7383L26.5703 28.207L24.5781 28.207ZM22.9766 23.4258L21.8906 20.3008C21.849 20.1654 21.7891 19.974 21.7109 19.7266C21.6328 19.4792 21.5547 19.2266 21.4766 18.9688C21.3984 18.7109 21.3333 18.4935 21.2813 18.3164C21.2292 18.5299 21.1654 18.7682 21.0898 19.0313C21.0143 19.2943 20.9414 19.5404 20.8711 19.7695C20.8008 19.9987 20.7474 20.1758 20.7109 20.3008L19.6172 23.4258L22.9766 23.4258ZM31.2813 19.3945C32.375 19.3945 33.2018 19.6367 33.7617 20.1211C34.3216 20.6055 34.6016 21.3607 34.6016 22.3867L34.6016 28.207L33.2969 28.207L32.9453 26.9805L32.8828 26.9805C32.638 27.293 32.3854 27.5508 32.125 27.7539C31.8646 27.957 31.5638 28.1094 31.2227 28.2109C30.8815 28.3125 30.4661 28.3633 29.9766 28.3633C29.4609 28.3633 29 28.2682 28.5938 28.0781C28.1875 27.888 27.8672 27.5977 27.6328 27.207C27.3984 26.8164 27.2813 26.3216 27.2813 25.7227C27.2813 24.832 27.6133 24.1628 28.2773 23.7148C28.9414 23.2669 29.9453 23.0195 31.2891 22.9727L32.7891 22.918L32.7891 22.4648C32.7891 21.8659 32.6497 21.4388 32.3711 21.1836C32.0924 20.9284 31.7005 20.8008 31.1953 20.8008C30.763 20.8008 30.3438 20.8633 29.9375 20.9883C29.5313 21.1133 29.1354 21.2669 28.75 21.4492L28.1563 20.1523C28.5781 19.9284 29.0586 19.7461 29.5977 19.6055C30.1367 19.4648 30.6979 19.3945 31.2813 19.3945L31.2813 19.3945ZM32.7813 24.0742L31.6641 24.1133C30.7474 24.1445 30.1042 24.3008 29.7344 24.582C29.3646 24.8633 29.1797 25.2487 29.1797 25.7383C29.1797 26.1654 29.3073 26.4766 29.5625 26.6719C29.8177 26.8672 30.1536 26.9648 30.5703 26.9648C31.2057 26.9648 31.7331 26.7839 32.1523 26.4219C32.5716 26.0599 32.7813 25.5273 32.7813 24.8242L32.7813 24.0742Z" id="Path" fill="#FFFFFF" fill-rule="evenodd" stroke="none" clip-path="url(#clip_1)" />
  </g>
</svg>